# xmcd CD database file
#
# Track frame offsets:
#	150
#	28803
#	50157
#	80043
#	114157
#	132631
#	158824
#	186876
#	216994
#	241849
#	272793
#	289929
#	319526
#
# Disc length: 4671 seconds
#
# Revision: 1
# Processed by: cddbd v1.5.2PL0 Copyright (c) Steve Scherf et al.
# Submitted via: CDex 1.70beta2
#
DISCID=c4123d0d
DTITLE=Various Artist - 純竹特輯:中國傳統樂器精選
DYEAR=1900
DGENRE=
TTITLE0=竹舞
TTITLE1=瑤族舞曲 
TTITLE2=竹林深處有閒心 
TTITLE3=觀竹 
TTITLE4=戲竹 
TTITLE5=春芽 
TTITLE6=一池清涼 
TTITLE7=搖風 
TTITLE8=思竹 
TTITLE9=虛心 
TTITLE10=撫竹 
TTITLE11=春風翠竹
TTITLE12=唱遍山月
EXTD=
EXTT0=
EXTT1=
EXTT2=
EXTT3=
EXTT4=
EXTT5=
EXTT6=
EXTT7=
EXTT8=
EXTT9=
EXTT10=
EXTT11=
EXTT12=
PLAYORDER=
